<svg xmlns="http://www.w3.org/2000/svg" version="1.1" width="100%" height="100%" viewBox="0 0 1000 600"><rect width="1000" height="600" x="0" y="0" fill="white"/><g><rect width="333.3333333333333" height="333.3333333333333" rx="13.333333333333334" ry="13.333333333333334" y="252.58287966060638" fill="#14919b" transform="matrix(0.5426275254171185,0,0,0.5426275254171183,0,72.5036959963503)" x="230.3607177734375"/><path d="M326.41105841992635 494.24953361643827L326.41105841992635 494.24953361643827Q316.83351215182097 494.24953361643827 308.38443810261623 490.92198732993637Q299.9353640534115 487.59444104343453 294.3219381440083 482.18356142973147L294.3219381440083 482.18356142973147L303.8994844121137 466.96365406712295Q308.066151066516 471.3328670172254 313.9110584567193 474.25532071232703Q319.7270306618226 477.17777440742867 325.77448434772595 477.17777440742867L325.77448434772595 477.17777440742867Q335.7860583923316 477.17777440742867 341.6020305974348 470.0018485026247Q347.4469379876381 462.7969874127206 347.4469379876381 445.725228203711L347.4469379876381 445.725228203711L347.4469379876381 345.9277747937551L367.2386045960492 345.9277747937551L367.2386045960492 443.64189487650987Q367.2386045960492 470.0886540579247 355.9828175921429 482.18356142973147Q344.72703058823663 494.24953361643827 326.41105841992635 494.24953361643827ZM422.4469377668802 491.76110769783685L402.6552711584691 491.76110769783685L402.6552711584691 346.3328673851553Q411.19115076297385 345.29120072155473 421.5210118436796 344.7703673897544Q431.82193773928543 344.2495340579542 442.87517844749163 344.2495340579542L442.87517844749163 344.2495340579542Q460.9886043201018 344.2495340579542 473.6911505790089 349.97870070775735Q486.39369683791597 355.70786735756053 493.0777245960197 365.7194414021661Q499.7328171690235 375.7310154467718 499.7328171690235 388.636108001379L499.7328171690235 388.636108001379Q499.7328171690235 404.2611079553878 492.03605793241917 415.08286718279385Q484.31036351071486 425.9335615952999 470.56615058820717 431.66272824510315Q456.82193766569947 437.3918948949064 438.7085117930893 437.3918948949064L438.7085117930893 437.3918948949064Q429.94115070778435 437.3918948949064 422.4469377668802 436.75532082270604L422.4469377668802 436.75532082270604L422.4469377668802 491.76110769783685ZM441.1969377116907 420.9277745729971L441.1969377116907 420.9277745729971Q459.74439136080105 420.9277745729971 469.9585117011068 412.5944412641925Q480.1436968563125 404.2611079553878 480.1436968563125 390.31434873717996L480.1436968563125 390.31434873717996Q480.1436968563125 376.7726821103724 470.36360429250703 368.84444139296795Q460.5835117287015 360.91620067556346 442.44115067099136 360.91620067556346L442.44115067099136 360.91620067556346Q436.82772476158823 360.91620067556346 431.82193773928543 361.1476821563636Q426.81615071698263 361.35022845206373 422.4469377668802 361.75532104346394L422.4469377668802 361.75532104346394L422.4469377668802 419.8861079093965Q425.774484053382 420.2912005007968 430.5777247799847 420.60948753689695Q435.3520303214874 420.9277745729971 441.1969377116907 420.9277745729971Z " fill="white" transform="matrix(0.5426275254171185,0,0,0.5426275254171183,0,72.5036959963503)"/><path d="M677.7532710225794 494.2495375061622L677.7532710225794 494.2495375061622Q668.5826022823258 494.2495375061622 660.4924655084463 491.06335350275083Q652.4023287345669 487.8771694993394 647.0273748505513 482.69615725031395L647.0273748505513 482.69615725031395L656.1980435908049 468.12282867818885Q660.1877000820331 472.30642680440724 665.7843015488947 475.10472753783813Q671.3531970679007 477.903028271269 677.1437401697528 477.903028271269L677.1437401697528 477.903028271269Q686.7299981278427 477.903028271269 692.2988936468487 471.03195320304275Q697.8954951137105 464.1331721869607 697.8954951137105 447.7866629520675L697.8954951137105 447.7866629520675L697.8954951137105 352.2288487975817L716.8463634470443 352.2288487975817L716.8463634470443 445.7918347064534Q716.8463634470443 471.11507104660996 706.068749731157 482.69615725031395Q695.2911360152698 494.2495375061622 677.7532710225794 494.2495375061622ZM792.4558951453891 494.2495375061622L792.4558951453891 494.2495375061622Q777.6886249382738 494.2495375061622 765.9135970995795 487.3784624379359Q754.1385692608853 480.5073873697096 747.4614358276493 468.23365246961185Q740.7843023944133 455.95991756951406 740.7843023944133 440.0012916046014L740.7843023944133 440.0012916046014Q740.7843023944133 423.239193151872 747.5722596190723 411.0762820431972Q754.3602168437313 398.9133709345224 766.1075387345699 392.31935534485365Q777.8825665732641 385.7530457030406 792.4558951453891 385.7530457030406L792.4558951453891 385.7530457030406Q807.0015177696586 385.7530457030406 818.6934277647855 392.31935534485365Q830.3576318120568 398.9133709345224 837.2287068802831 410.9654582517742Q844.1274878963651 423.04525151688165 844.1274878963651 439.6134083346209L844.1274878963651 439.6134083346209Q844.1274878963651 456.15385920450433 837.339530671706 468.4275941046021Q830.551573447047 480.7013290046999 818.8873693997758 487.4892862293589Q807.2231653525046 494.2495375061622 792.4558951453891 494.2495375061622ZM792.4558951453891 478.29091154124956L792.4558951453891 478.29091154124956Q808.2205794753116 478.29091154124956 816.975658997729 467.6241216167853Q825.7584444680022 456.95733169232113 825.7584444680022 440.0012916046014L825.7584444680022 440.0012916046014Q825.7584444680022 429.63926710655045 821.3809047067934 420.93959947984456Q816.975658997729 412.26763780099446 809.4950530766762 406.975801760546Q802.0144471556233 401.7116716679533 792.4558951453891 401.7116716679533L792.4558951453891 401.7116716679533Q776.6912108154668 401.7116716679533 767.9084253451937 412.0736961660042Q759.1256398749205 422.43572066405517 759.1256398749205 439.6134083346209L759.1256398749205 439.6134083346209Q759.1256398749205 449.9754328326718 763.530885583985 458.8413361465122Q767.9084253451937 467.7349454082083 775.3890312662464 473.02678144865683Q782.8696371872993 478.29091154124956 792.4558951453891 478.29091154124956ZM914.7222430328192 494.2495375061622L914.7222430328192 494.2495375061622Q905.7455159275557 494.2495375061622 897.8770267365225 490.98023565918356Q890.008537545489 487.6832278643492 884.7998193486078 483.27798215528475L884.7998193486078 483.27798215528475L884.7998193486078 491.8668259905676L868.0654268437341 491.8668259905676L868.0654268437341 344.24953581512534L886.018881054261 344.24953581512534L886.018881054261 398.9133709345224Q890.008537545489 394.31418359046774 897.6830851015321 390.0197616728263Q905.3576326575752 385.7530457030406 915.9413047384722 385.7530457030406L915.9413047384722 385.7530457030406Q927.9102742121567 385.7530457030406 938.3831225016306 392.0145899184404Q948.8559707911046 398.30384008169585 955.2283387979273 410.1896917118131Q961.6007068047501 422.04783739407463 961.6007068047501 439.00387748179435L961.6007068047501 439.00387748179435Q961.6007068047501 451.3607302254594 957.611050313522 461.5565190363758Q953.6213938222937 471.7246018994365 946.9442603890577 479.01126618549904Q940.2671269558217 486.27022452370585 931.8999307033848 490.259881014934Q923.5050285030923 494.2495375061622 914.7222430328192 494.2495375061622ZM909.9568200016299 478.29091154124956L909.9568200016299 478.29091154124956Q919.7093136468543 478.29091154124956 927.1899195679072 473.5254885100603Q934.6705254889599 468.7323595310154 938.9649474066015 459.9495740607423Q943.2593693242428 451.16678859046914 943.2593693242428 439.6134083346209L943.2593693242428 439.6134083346209Q943.2593693242428 427.64443886093636 938.9649474066015 419.05559502565353Q934.6705254889599 410.46675119037064 927.6055087857434 405.8952697941717Q920.512786134671 401.296082450117 911.951648247244 401.296082450117L911.951648247244 401.296082450117Q903.3628044119611 401.296082450117 896.4917293437348 405.59050436775846Q889.5929483276528 409.88492628539984 886.018881054261 414.8719968994351L886.018881054261 414.8719968994351L886.018881054261 470.3115985587932Q890.5903624504598 473.91337178004085 896.7687888222923 476.1021416606452Q902.9749211419806 478.29091154124956 909.9568200016299 478.29091154124956ZM1067.3266038222964 491.8668259905676L1048.3757354889626 491.8668259905676L1048.3757354889626 352.6167320675622Q1056.576696054265 351.61931794475515 1066.4400134909124 351.1206108833517Q1076.3033309275602 350.62190382194814 1086.8870030084568 350.62190382194814L1086.8870030084568 350.62190382194814Q1104.2309263661573 350.62190382194814 1116.4215434226876 356.10768149738686Q1128.5844545313626 361.59345917282553 1134.9568225381854 371.1797171309155Q1141.3568964928636 380.7659750890054 1141.3568964928636 393.1228278326704L1141.3568964928636 393.1228278326704Q1141.3568964928636 408.0840396747761 1133.9594084153782 418.446064172827Q1126.5896262857484 428.83579461873364 1113.4293010542665 434.3215722941724Q1100.241269874929 439.80734996961115 1082.897346517229 439.80734996961115L1082.897346517229 439.80734996961115Q1074.530150264792 439.80734996961115 1067.3266038222964 439.1978191167846L1067.3266038222964 439.1978191167846L1067.3266038222964 491.8668259905676ZM1085.2800580328235 424.0426656396887L1085.2800580328235 424.0426656396887Q1103.03957060836 424.0426656396887 1112.81977020144 416.0633526572324Q1122.5999697945203 408.0840396747761 1122.5999697945203 394.72977280830395L1122.5999697945203 394.72977280830395Q1122.5999697945203 381.7633892118124 1113.2076534714206 374.1719594993366Q1103.8430430961766 366.5805297868608 1086.4991197384766 366.5805297868608L1086.4991197384766 366.5805297868608Q1081.0964599066049 366.5805297868608 1076.3033309275602 366.8021773697068Q1071.5379078963706 366.99611900469705 1067.3266038222964 367.3840022746776L1067.3266038222964 367.3840022746776L1067.3266038222964 423.04525151688165Q1070.5404937735639 423.4331347868622 1075.1119751697624 423.73790021327545Q1079.7111625138173 424.0426656396887 1085.2800580328235 424.0426656396887ZM1202.9749245240541 494.2495375061622L1202.9749245240541 494.2495375061622Q1188.2353602647947 494.2495375061622 1176.4603324261004 487.3784624379359Q1164.6853045874063 480.5073873697096 1158.0081711541702 468.23365246961185Q1151.331037720934 455.95991756951406 1151.331037720934 440.0012916046014L1151.331037720934 440.0012916046014Q1151.331037720934 423.239193151872 1158.0912889977376 411.0762820431972Q1164.8792462223964 398.9133709345224 1176.6542740610907 392.31935534485365Q1188.429301899785 385.7530457030406 1202.9749245240541 385.7530457030406L1202.9749245240541 385.7530457030406Q1217.5482530961795 385.7530457030406 1229.2124571434506 392.31935534485365Q1240.876661190722 398.9133709345224 1247.775442206804 410.9654582517742Q1254.64651727503 423.04525151688165 1254.64651727503 439.6134083346209L1254.64651727503 439.6134083346209Q1254.64651727503 456.15385920450433 1247.8585600503711 468.4275941046021Q1241.0983087735679 480.7013290046999 1229.406398778441 487.4892862293589Q1217.7421947311698 494.2495375061622 1202.9749245240541 494.2495375061622ZM1202.9749245240541 478.29091154124956L1202.9749245240541 478.29091154124956Q1218.7396088539767 478.29091154124956 1227.52239432425 467.6241216167853Q1236.3051797945232 456.95733169232113 1236.3051797945232 440.0012916046014L1236.3051797945232 440.0012916046014Q1236.3051797945232 429.63926710655045 1231.8999340854584 420.93959947984456Q1227.52239432425 412.26763780099446 1220.0417884031972 406.975801760546Q1212.5611824821444 401.7116716679533 1202.9749245240541 401.7116716679533L1202.9749245240541 401.7116716679533Q1187.2379461419878 401.7116716679533 1178.4551606717146 412.0736961660042Q1169.6723752014414 422.43572066405517 1169.6723752014414 439.6134083346209L1169.6723752014414 439.6134083346209Q1169.6723752014414 449.9754328326718 1174.04991496265 458.8413361465122Q1178.4551606717146 467.7349454082083 1185.9357665927673 473.02678144865683Q1193.41637251382 478.29091154124956 1202.9749245240541 478.29091154124956ZM1296.5379104329259 491.8668259905676L1278.5844562223992 491.8668259905676L1278.5844562223992 388.1357572186352L1295.956085527955 388.1357572186352L1295.956085527955 410.68839877321665Q1298.5327386785402 404.09438318354785 1302.9379843876045 398.4146638731189Q1307.315524148813 392.7349445626899 1313.9095397384822 389.2439951328653Q1320.4758493802951 385.7530457030406 1329.258634850568 385.7530457030406L1329.258634850568 385.7530457030406Q1332.2508772189894 385.7530457030406 1335.2431195874105 386.0301051815981Q1338.2353619558316 386.3348706080114 1340.2301902014456 386.9444014608379L1340.2301902014456 386.9444014608379L1334.85523631743 405.47968057633545Q1331.0595214611917 403.90044154855764 1325.8785092121666 403.90044154855764L1325.8785092121666 403.90044154855764Q1318.4810211346808 403.90044154855764 1311.8038877014446 408.0840396747761Q1305.126754268209 412.26763780099446 1300.8323323505674 421.0504232712676Q1296.5379104329259 429.8332087415407 1296.5379104329259 443.38141724300306L1296.5379104329259 443.38141724300306L1296.5379104329259 491.8668259905676ZM1398.4680925942348 494.2495375061622L1398.4680925942348 494.2495375061622Q1383.5068807521288 494.2495375061622 1374.8349190732788 484.3862200695148Q1366.1629573944288 474.5229026328674 1366.1629573944288 456.15385920450433L1366.1629573944288 456.15385920450433L1366.1629573944288 407.47450882194954L1348.2095031839021 407.47450882194954L1348.2095031839021 391.9314720748731L1366.5508406644094 391.9314720748731L1370.3465555206471 359.21074765723097L1384.1164116049554 359.21074765723097L1384.1164116049554 391.9314720748731L1412.8474795313696 391.9314720748731L1412.8474795313696 407.47450882194954L1384.1164116049554 407.47450882194954L1384.1164116049554 457.5668625451476Q1384.1164116049554 469.12024280099587 1388.9926584275677 473.7194301450506Q1393.8966111980358 478.29091154124956 1400.6845684226946 478.29091154124956L1400.6845684226946 478.29091154124956Q1405.6716390367296 478.29091154124956 1410.1600025893617 476.71167251347174Q1414.6483661419934 475.10472753783813 1418.4163750503753 472.9159576572338L1418.4163750503753 472.9159576572338L1423.4034456644108 487.2676386465129Q1419.4137891731825 489.6780561099632 1412.653537896379 491.97764978199064Q1405.8655806717202 494.2495375061622 1398.4680925942348 494.2495375061622ZM1477.0698666610006 494.2495375061622L1477.0698666610006 494.2495375061622Q1464.103483064509 494.2495375061622 1453.5475169314682 487.6832278643492Q1442.9638448505711 481.0892122746804 1436.6745946873152 469.03712495742866Q1430.3853445240597 456.95733169232113 1430.3853445240597 440.61082245742796L1430.3853445240597 440.61082245742796Q1430.3853445240597 425.0400797624958 1436.6745946873152 412.68322701883073Q1442.9638448505711 400.29866832731 1454.046223992871 393.0120040412474Q1465.1008971873161 385.7530457030406 1479.480284124451 385.7530457030406L1479.480284124451 385.7530457030406Q1488.4570112297142 385.7530457030406 1495.715969567921 388.828405915029Q1503.0026338539838 391.9314720748731 1508.4052936858552 396.50295347107203L1508.4052936858552 396.50295347107203L1508.4052936858552 388.1357572186352L1524.7518029207486 388.1357572186352L1524.7518029207486 466.7375312854013Q1524.7518029207486 474.3012550500213 1528.4366939855631 476.6008487220487Q1532.1215850503781 478.90044239407604 1536.5268307594429 478.90044239407604L1536.5268307594429 478.90044239407604L1532.7311159032047 492.86424011337465Q1513.5863059348808 492.86424011337465 1509.5966494436525 477.2934974184425L1509.5966494436525 477.2934974184425Q1504.9974620995977 483.693571373121 1497.1289729085647 488.9854074135695Q1489.2327777696755 494.2495375061622 1477.0698666610006 494.2495375061622ZM1481.0595231522288 478.29091154124956L1481.0595231522288 478.29091154124956Q1488.6509528647048 478.29091154124956 1495.4389100893636 474.6060204764346Q1502.1991613661671 470.92112941161975 1506.7983487102215 465.32452794475796L1506.7983487102215 465.32452794475796L1506.7983487102215 409.69098465040963Q1501.4233948262058 405.8952697941717 1494.9402030279603 403.59567612214437Q1488.4570112297142 401.296082450117 1481.253464787219 401.296082450117L1481.253464787219 401.296082450117Q1471.694912776985 401.296082450117 1464.4082484909222 406.20003522058494Q1457.1215842048596 411.0762820431972 1452.9379860786412 419.7482437220473Q1448.7543879524228 428.42020540089743 1448.7543879524228 440.0012916046014L1448.7543879524228 440.0012916046014Q1448.7543879524228 451.16678859046914 1452.9379860786412 459.83875026931923Q1457.1215842048596 468.5384178960251 1464.5190722823454 473.41466471863737Q1471.8888544119754 478.29091154124956 1481.0595231522288 478.29091154124956ZM1591.9664324188007 494.2495375061622L1591.9664324188007 494.2495375061622Q1582.7957636785472 494.2495375061622 1575.4259815489172 490.75858807633756Q1568.0284934714318 487.2676386465129 1563.761777501646 479.5099732469026Q1559.4673555840045 471.7246018994365 1559.4673555840045 459.34004320791576L1559.4673555840045 459.34004320791576L1559.4673555840045 344.24953581512534L1577.4208097945316 344.24953581512534L1577.4208097945316 457.5668625451476Q1577.4208097945316 468.3167703131791 1581.9091733471632 473.5254885100603Q1586.3975368997949 478.70650075908577 1594.376849882251 478.70650075908577L1594.376849882251 478.70650075908577Q1598.1725647384892 478.70650075908577 1601.8574558033038 477.79220447984596Q1605.5423468681188 476.90561414846195 1608.1467059665592 475.71425839066467L1608.1467059665592 475.71425839066467L1612.5242457277682 490.259881014934Q1608.9224725065205 491.8668259905676 1603.6583424139276 493.05818174836486Q1598.3665063734793 494.2495375061622 1591.9664324188007 494.2495375061622Z " fill="#14919b" transform="matrix(0.5426275254171185,0,0,0.5426275254171183,0,72.5036959963503)"/></g></svg>